<svg xmlns="http://www.w3.org/2000/svg" viewBox="0 0 614 860"><defs><style>.cls-1,.cls-3{fill:#fff;}.cls-1{fill-rule:evenodd;}.cls-2,.cls-4{fill:none;}.cls-2{stroke:#fff;stroke-miterlimit:22.93;stroke-width:3.47px;}</style></defs><title>Asset 1</title><g id="Layer_2" data-name="Layer 2"><g id="Layer_1-2" data-name="Layer 1"><path class="cls-1" d="M571.9,201.1h0C566.37,275,387.13,359.54,440.59,505.39c-32.61,4.14-13.38,1.67-46.4,6.15C375.45,311.87,555.94,282.14,571.9,201.1"/><path class="cls-1" d="M562.37,227.28h0c-24.89,60.47-169.72,52.35-195.2,216.07-29-6.43-11.88-2.67-41.3-8.94,38.51-173.69,200.74-143.81,236.5-207.13"/><path class="cls-1" d="M63.92,201.1h0C69.45,275,248.69,359.54,195.23,505.39c32.6,4.14,13.37,1.67,46.4,6.15C260.37,311.87,79.88,282.14,63.92,201.1"/><path class="cls-1" d="M73.45,227.28h0c24.89,60.47,169.71,52.35,195.2,216.07,29-6.43,11.87-2.67,41.3-8.94C271.44,260.72,109.2,290.6,73.45,227.28"/><line class="cls-2" x1="275.9" y1="215.66" x2="243.34" y2="214.08"/><line class="cls-2" x1="276.04" y1="222.36" x2="243.69" y2="228.36"/><line class="cls-2" x1="377.84" y1="263.66" x2="336.52" y2="246.21"/><line class="cls-2" x1="381.34" y1="250.51" x2="340.22" y2="240.25"/><line class="cls-2" x1="383.45" y1="236.7" x2="342.29" y2="234"/><line class="cls-2" x1="382.97" y1="222.54" x2="343.35" y2="226.97"/><line class="cls-2" x1="380.11" y1="209.18" x2="342.83" y2="220.27"/><line class="cls-2" x1="374.82" y1="196.44" x2="341.21" y2="214.06"/><line class="cls-2" x1="367.64" y1="184.77" x2="337.99" y2="207.55"/><line class="cls-2" x1="358.8" y1="173.87" x2="333.58" y2="201.35"/><line class="cls-2" x1="335.73" y1="158.21" x2="322.92" y2="192.96"/><line class="cls-2" x1="308.1" y1="153.32" x2="309.95" y2="189.06"/><line class="cls-2" x1="322.63" y1="154.47" x2="316.69" y2="190.59"/><line class="cls-2" x1="294.99" y1="155.18" x2="302.93" y2="189.62"/><line class="cls-2" x1="281.53" y1="159.82" x2="295.97" y2="190.93"/><line class="cls-2" x1="269.75" y1="167.23" x2="289.77" y2="193.72"/><line class="cls-2" x1="259.18" y1="176.28" x2="284.03" y2="197.49"/><line class="cls-2" x1="247.57" y1="241.44" x2="278.1" y2="229.24"/><line class="cls-2" x1="347.93" y1="165.32" x2="328.8" y2="196.94"/><line class="cls-2" x1="371.12" y1="275.86" x2="333.5" y2="252.35"/><line class="cls-2" x1="362.39" y1="286.96" x2="328.54" y2="256.83"/><line class="cls-2" x1="341.55" y1="304.36" x2="316.96" y2="265.28"/><line class="cls-2" x1="320.29" y1="262.9" x2="311.24" y2="243.57"/><line class="cls-2" x1="342.04" y1="237.08" x2="322.94" y2="230.59"/><line class="cls-2" x1="352.63" y1="296.44" x2="323.07" y2="261.22"/><line class="cls-2" x1="315.99" y1="315.01" x2="303.94" y2="269.98"/><line class="cls-2" x1="302.23" y1="316.4" x2="297.8" y2="271.49"/><line class="cls-2" x1="329.21" y1="310.98" x2="311.33" y2="268.42"/><line class="cls-2" x1="277.39" y1="209.03" x2="245.71" y2="200.68"/><line class="cls-2" x1="285.72" y1="240.75" x2="264.88" y2="262.92"/><line class="cls-2" x1="290.84" y1="244.27" x2="277.06" y2="269.39"/><line class="cls-2" x1="294.76" y1="245.72" x2="290.41" y2="271.48"/><line class="cls-2" x1="298.73" y1="246.38" x2="301.03" y2="271.03"/><line class="cls-2" x1="314.95" y1="241.55" x2="326.12" y2="259.21"/><line class="cls-2" x1="307.51" y1="245.37" x2="313.86" y2="266.47"/><line class="cls-2" x1="322.29" y1="233.42" x2="339.18" y2="243.56"/><line class="cls-2" x1="320.38" y1="236.65" x2="335.42" y2="249.82"/><line class="cls-2" x1="303.41" y1="246.25" x2="307.77" y2="269.45"/><line class="cls-2" x1="318.35" y1="239.21" x2="331.53" y2="254.42"/><line class="cls-2" x1="280.01" y1="202.6" x2="251.43" y2="187.8"/><line class="cls-2" x1="281.18" y1="235.71" x2="254.52" y2="253.23"/><line class="cls-2" x1="343.34" y1="223.58" x2="323.97" y2="224.78"/><line class="cls-2" x1="343.47" y1="230.47" x2="323.47" y2="227.77"/><line class="cls-2" x1="342.18" y1="216.77" x2="324.08" y2="221.18"/><line class="cls-2" x1="339.43" y1="210.56" x2="322.59" y2="218.24"/><line class="cls-2" x1="335.52" y1="204.06" x2="320.84" y2="215.33"/><line class="cls-2" x1="331.01" y1="198.76" x2="318.66" y2="212.27"/><line class="cls-2" x1="319.55" y1="191.33" x2="313.69" y2="207.87"/><line class="cls-2" x1="305.97" y1="189.11" x2="306.96" y2="206.18"/><line class="cls-2" x1="313.16" y1="189.33" x2="310.29" y2="206.94"/><line class="cls-2" x1="299.64" y1="189.98" x2="303.48" y2="206.46"/><line class="cls-2" x1="292.89" y1="191.71" x2="300.04" y2="207.11"/><line class="cls-2" x1="286.34" y1="195.73" x2="296.97" y2="208.49"/><line class="cls-2" x1="281.83" y1="199.85" x2="294.13" y2="210.36"/><line class="cls-2" x1="279.75" y1="232.47" x2="291.19" y2="226.07"/><line class="cls-2" x1="325.6" y1="194.77" x2="316.29" y2="210.08"/><line class="cls-2" x1="324.36" y1="222.65" x2="314.23" y2="222.85"/><line class="cls-2" x1="321.53" y1="234.97" x2="312.81" y2="229.49"/><line class="cls-2" x1="290.84" y1="216.07" x2="275.16" y2="211.93"/><line class="cls-2" x1="294.96" y1="231.77" x2="288.23" y2="242.98"/><line class="cls-2" x1="290.1" y1="219.35" x2="274.82" y2="219.13"/><line class="cls-2" x1="323.65" y1="229.32" x2="313.88" y2="226.03"/><line class="cls-2" x1="290.17" y1="222.67" x2="276.21" y2="225.45"/><line class="cls-2" x1="297.94" y1="233.59" x2="292.61" y2="245.6"/><line class="cls-2" x1="301.82" y1="234.84" x2="300.99" y2="246.56"/><line class="cls-2" x1="307.13" y1="234.24" x2="309.79" y2="244.3"/><line class="cls-2" x1="317.6" y1="210.31" x2="311.67" y2="216.77"/><line class="cls-2" x1="310.96" y1="232.27" x2="317.07" y2="240.72"/><line class="cls-2" x1="321.95" y1="216.42" x2="313.42" y2="219.76"/><line class="cls-2" x1="311.39" y1="206.81" x2="308.43" y2="214.87"/><line class="cls-2" x1="290.56" y1="224.61" x2="297.13" y2="223.48"/><line class="cls-2" x1="304.99" y1="205.99" x2="305.3" y2="213.92"/><line class="cls-2" x1="293.94" y1="230.75" x2="298.46" y2="226.52"/><line class="cls-2" x1="298.16" y1="207.56" x2="301.47" y2="214.59"/><line class="cls-2" x1="300.06" y1="234.41" x2="301.28" y2="229.07"/><line class="cls-2" x1="292.79" y1="211.6" x2="298.8" y2="216.76"/><line class="cls-2" x1="276.21" y1="250.78" x2="280.02" y2="243.83"/><line class="cls-2" x1="289.95" y1="217.92" x2="296.89" y2="219.65"/><line class="cls-2" x1="309.06" y1="233.13" x2="306.36" y2="228.14"/><line class="cls-2" x1="313.65" y1="227.8" x2="309.08" y2="225.53"/><line class="cls-2" x1="314.34" y1="221.25" x2="309.5" y2="222.26"/><line class="cls-2" x1="299.93" y1="223.8" x2="297.16" y2="225.01"/><line class="cls-2" x1="310.03" y1="215.49" x2="307.58" y2="219.77"/><line class="cls-2" x1="303.59" y1="226.22" x2="303.81" y2="229.47"/><line class="cls-2" x1="303.61" y1="214.3" x2="304.75" y2="218.76"/><line class="cls-2" x1="300.66" y1="220.43" x2="297.24" y2="218.15"/><line class="cls-2" x1="292.14" y1="212.88" x2="277.99" y2="205.56"/><line class="cls-2" x1="292.72" y1="229.28" x2="282.95" y2="238.52"/><path class="cls-3" d="M128.66,635a65.22,65.22,0,0,0,8.82-2.1,29.06,29.06,0,0,0,7.55-3.55,17.1,17.1,0,0,0,5.2-5.39,13.52,13.52,0,0,0,1.78-7.49q0-6.35-6.35-10.27t-17.12-4.06q-3.43,0-6.85.31c-2.29.22-4.57.53-6.85,1q.12,7.61.31,14.52t.38,12.31q.19,5.38.38,8.88c.13,2.33.24,3.74.32,4.25h-13.7c.08-.51.17-1.9.25-4.19s.15-5.11.19-8.5.09-7.14.13-11.29.08-8.35.13-12.62.06-8.48.06-12.63V563.92q-5.46,0-11.29.13l-10.91.25c-3.38.09-6.3.21-8.76.38s-4.1.3-4.94.38V554.28a37.77,37.77,0,0,0,4.37.44c2.08.13,4.42.26,7,.38s5.37.24,8.24.32,5.52.15,7.93.19,4.44.09,6.09.13l2.85.06h11l3.11-.06c1.65,0,3.64-.09,6-.13s4.84-.1,7.55-.19,5.31-.19,7.8-.32,4.76-.25,6.79-.38a43.28,43.28,0,0,0,4.44-.44v10.78c-.42-.08-2-.21-4.82-.38s-6-.29-9.77-.38l-11.48-.25q-5.9-.13-9.83-.13v30.7q3.67-.63,7.61-1t7.74-.32a55.94,55.94,0,0,1,15.54,1.91,34.26,34.26,0,0,1,10.78,5,20.12,20.12,0,0,1,6.28,7.1,18.09,18.09,0,0,1,2,8.31,19.12,19.12,0,0,1-2.48,9.33,29.68,29.68,0,0,1-7.1,8.37,45.05,45.05,0,0,1-11.36,6.72,66.07,66.07,0,0,1-15.1,4.25Z"/><path class="cls-3" d="M220,644.61l-3.68-.07q-3.17-.06-7.74-.25c-3-.13-6.3-.23-9.76-.32s-6.73-.19-9.77-.31-5.67-.22-7.87-.26l-3.93-.06c.08-1.1.14-2.71.19-4.82s.06-4.44.06-7,0-5.31.07-8.06.06-5.26.06-7.54V586.5q0-2.65-.06-6.41t-.07-7.92c0-2.79,0-5.44-.06-7.93s-.09-4.63-.13-6.41-.06-2.87-.06-3.3c.51,0,1.75,0,3.74-.13s4.36-.21,7.1-.38l8.89-.5q4.75-.25,8.94-.51t7.36-.51c2.11-.17,3.51-.29,4.18-.38l.51,10c-.68,0-1.82,0-3.42.07l-5.46.12-6.34.13-6.22.13-4.95.12c-1.35,0-2.2.07-2.53.07V595q.89,0,4-.12l6.92-.32c2.54-.13,5.09-.28,7.67-.45s4.63-.33,6.16-.5l.38,10q-.77,0-2.67-.06c-1.27-.05-2.79-.07-4.56-.07s-3.52,0-5.46-.12-3.76-.13-5.46-.13-3.17,0-4.44-.06-2.11-.07-2.53-.07v31l4.56.06q3.43.06,7.87.06t9.26-.12c3.21-.09,6.13-.21,8.76-.38Z"/><path class="cls-3" d="M238.22,643.34c.08-.93.14-2.47.19-4.63s.08-4.65.12-7.49.09-5.85.13-9.07.09-6.34.13-9.39.06-5.83.06-8.37V581.3q0-2.41-.06-5.58c0-2.11-.09-4.34-.13-6.66s-.08-4.53-.13-6.6-.06-3.83-.06-5.26v-2.67q2,0,4.89.06c1.9,0,3.93.13,6.09.26s4.35.3,6.59.51,4.34.48,6.28.82q12.81,2.16,20.24,8.18T290,580.54a27.59,27.59,0,0,1-2.86,12.31A34.32,34.32,0,0,1,279,603.38a52.5,52.5,0,0,1-12.69,8.18,70.3,70.3,0,0,1-16.43,5.26v17c0,2,0,4,.06,5.78s.11,3.06.19,3.74Zm11.67-35.4a57,57,0,0,0,11-3.49,36.72,36.72,0,0,0,8.81-5.32,22.61,22.61,0,0,0,5.84-7.3A18.34,18.34,0,0,0,276.91,578a14.35,14.35,0,0,0-3.55-6.09,24.28,24.28,0,0,0-8.31-5.45q-5.52-2.41-15.16-2.54Z"/><path class="cls-3" d="M387.45,633.57h3a26.42,26.42,0,0,0,2.79-.13v10.41c-2.7-.09-5.9-.17-9.58-.26s-7.76-.15-12.24-.19-9.26-.06-14.34-.06H341.65q-12.43.12-25.06.19t-24.17.32V633.44a17.83,17.83,0,0,0,2.6.07c.81,0,1.67-.07,2.6-.07q2.92-5.45,6.79-12.68t8.18-15.23q4.32-8,8.7-16.17t8.3-15.48q3.95-7.29,7.17-13.13t5.27-9.26h.25q2,3.56,5.33,9.39T354.84,574l8.31,15.41q4.38,8.12,8.69,16.05t8.37,15.22Q384.28,628,387.45,633.57ZM375,633.7q-.37-.51-2.6-4.7T367,618.66q-3.24-6.15-7.11-13.38t-7.42-14q-3.56-6.72-6.41-12.11l-4.12-7.81q-1.27,2.42-4.12,7.87t-6.41,12.18q-3.56,6.72-7.36,14t-7,13.32q-3.18,6.09-5.33,10.21c-1.44,2.75-2.25,4.29-2.41,4.63q8,.13,16.11.13t16.24.12h17.63Q367.79,633.82,375,633.7Z"/><path class="cls-3" d="M398,639.15q1.26-2.28,3.87-7.1t6-11.23q3.36-6.41,7.17-13.89t7.74-15q3.93-7.54,7.61-14.71T437,564.3q3-5.71,5-9.51a53.08,53.08,0,0,1,2.6-4.7h.25q2.79,4.44,7,11.86t9,16.12q4.81,8.68,9.9,18t9.7,17.63q4.63,8.32,8.37,14.91t5.9,9.9l-10.78,7.1q-.63-1.14-2.09-3.93t-3.24-6.28q-1.77-3.49-3.74-7.3t-3.74-7c-1.19-2.15-2.18-4-3-5.52a30.26,30.26,0,0,0-1.58-2.79l-44,1.78c-.26.42-.72,1.38-1.4,2.85s-1.48,3.26-2.41,5.33-1.93,4.32-3,6.73-2.08,4.69-3,6.85-1.84,4.1-2.6,5.83-1.31,2.94-1.65,3.62Zm64.7-34.51q-.37-.63-1.77-3.36c-.94-1.82-2-3.93-3.3-6.34s-2.65-5-4.13-7.74-2.85-5.33-4.12-7.74-2.37-4.46-3.3-6.15-1.48-2.71-1.65-3a26.52,26.52,0,0,0-1.9,3.43q-1.4,2.79-3.23,6.66t-3.94,8.18c-1.39,2.88-2.68,5.56-3.87,8.06s-2.22,4.63-3.11,6.41l-1.58,3.17Z"/><path class="cls-3" d="M573.37,554.53c0,.43,0,1.65-.06,3.68s-.09,4.46-.13,7.3-.08,5.85-.12,9.07-.09,6.23-.13,9.07-.06,5.31-.06,7.42v19.54c0,1.77,0,3.91.06,6.4s.08,5.21.13,8.12.1,5.67.19,8.25.14,4.78.19,6.6a26.47,26.47,0,0,0,.19,3.36H561.19a36.94,36.94,0,0,0,.13-3.93q0-2.92.06-6.66t.07-7.93c0-2.79,0-5.4.06-7.81s.06-4.46.06-6.15V580.29q0-3.3-.06-6.6t-.13-6c0-1.82-.1-3.06-.19-3.74q-1.91,0-5.58.06t-8.24.13l-9.65.13-9.7.12q-4.63.07-8.44.19c-2.54.09-4.52.13-6,.13-.09.51-.17,1.76-.26,3.74s-.14,4.25-.19,6.79l-.12,7.61Q513,586.63,513,589v20.42q0,2.92.07,8.13t.12,10.59c.05,3.59.11,6.83.19,9.7s.13,4.7.13,5.46H501.31c.09-.93.13-2.45.13-4.57s0-4.5.06-7.17.07-5.43.07-8.31,0-5.73.06-8.31.06-4.75.06-6.53V591.07c0-.34,0-1.33-.06-3s-.09-3.64-.13-6-.08-4.85-.12-7.55-.09-5.31-.13-7.81-.09-4.73-.13-6.72-.06-3.45-.06-4.38h20.17c3.21,0,6,0,8.5-.06s4.23-.06,5.33-.06,2.9,0,5.64-.13,5.92-.17,9.52-.25l11.48-.26Q567.79,554.79,573.37,554.53Z"/><path class="cls-3" d="M101.33,705.78c0-.46,0-1.13.07-2s0-1.86,0-2.92,0-2.23,0-3.38,0-2.21,0-3.16V682c0-.74,0-1.64,0-2.68s0-2.15,0-3.32,0-2.28,0-3.33,0-1.94-.05-2.68,0-1.21,0-1.38l1.51-.06c.81,0,1.77-.08,2.88-.16l3.61-.21,3.62-.21c1.14-.07,2.13-.14,3-.21l1.7-.16.2,4.2-1.39,0-2.21.06-2.57,0-2.52.05-2,.06-1,0v18.82c0,2,0,3.95,0,5.9s.08,3.75.13,5.4.11,2.86.18,3.64Z"/><path class="cls-3" d="M181.74,706.31l-1.49,0c-.86,0-1.9,0-3.14-.1s-2.56-.1-4-.13-2.73-.08-4-.14-2.3-.09-3.19-.1l-1.6,0c0-.46.06-1.13.08-2s0-1.86,0-2.92,0-2.23,0-3.38,0-2.21,0-3.16V682c0-.74,0-1.64,0-2.68s0-2.15,0-3.32,0-2.28,0-3.33,0-1.94,0-2.68,0-1.21,0-1.38l1.52-.06c.8,0,1.77-.08,2.88-.16l3.6-.21,3.63-.21c1.13-.07,2.13-.14,3-.21s1.43-.13,1.7-.16l.21,4.2-1.39,0-2.21.06-2.58,0-2.52.05-2,.06-1,0v13.51l1.62-.06,2.8-.13c1-.05,2.07-.12,3.11-.19s1.88-.14,2.5-.21l.15,4.2-1.08,0-1.85,0c-.69,0-1.42,0-2.21-.06s-1.53,0-2.21,0-1.29,0-1.8,0l-1,0v13l1.85,0c.92,0,2,0,3.19,0s2.45,0,3.76-.05,2.48-.09,3.55-.16Z"/><path class="cls-3" d="M246.72,706.63a18.43,18.43,0,0,1-7.49-1.44,16.11,16.11,0,0,1-8.92-9.4,19.1,19.1,0,0,1-1.19-6.7,23.42,23.42,0,0,1,1.47-8.32,20.61,20.61,0,0,1,4.14-6.81,19.37,19.37,0,0,1,6.46-4.57,20.47,20.47,0,0,1,8.41-1.67,18.27,18.27,0,0,1,6.77,1.22,15.62,15.62,0,0,1,5.4,3.53,16.38,16.38,0,0,1,3.6,5.69,21,21,0,0,1,1.31,7.68,24.29,24.29,0,0,1-1.05,6.76,20.4,20.4,0,0,1-3.45,6.75,18.54,18.54,0,0,1-15.46,7.28Zm.46-3.93a14,14,0,0,0,5.51-1.12,13.58,13.58,0,0,0,4.63-3.24,15.72,15.72,0,0,0,3.19-5.21,19.5,19.5,0,0,0,1.18-7,17.27,17.27,0,0,0-1.05-6.27,13.25,13.25,0,0,0-2.83-4.52,11.92,11.92,0,0,0-4.09-2.74,12.9,12.9,0,0,0-4.84-.93A13.85,13.85,0,0,0,238,676.57a16.19,16.19,0,0,0-2.93,5.29,19.74,19.74,0,0,0-1,6.43,16.76,16.76,0,0,0,.93,5.61,13.9,13.9,0,0,0,2.62,4.57,12.44,12.44,0,0,0,9.57,4.23Z"/><path class="cls-3" d="M344.68,668.57c0,.17,0,.69,0,1.54s0,1.87-.06,3.06,0,2.45-.05,3.8,0,2.61-.05,3.8,0,2.22,0,3.11v8.18c0,.75,0,1.64,0,2.69s0,2.18.05,3.4.05,2.38.08,3.46.06,2,.08,2.76a9.6,9.6,0,0,0,.08,1.41h-5.05a15.17,15.17,0,0,0,.05-1.65q0-1.21,0-2.79c0-1,0-2.15,0-3.32s0-2.26,0-3.27,0-1.87,0-2.58V679.36c0-.92,0-1.84,0-2.77s0-1.76-.05-2.52,0-1.29-.08-1.57l-2.26,0-3.35.05-3.91,0-3.93.06c-1.26,0-2.4,0-3.42.08s-1.84.05-2.42.05c0,.21-.07.74-.11,1.57s-.06,1.78-.07,2.84,0,2.13,0,3.19,0,1.93,0,2.61v8.56c0,.81,0,1.95,0,3.4s0,2.93,0,4.44,0,2.86.07,4.06.06,2,.06,2.29h-4.94c0-.39.05-1,.05-1.91s0-1.89,0-3,0-2.27,0-3.48,0-2.4,0-3.48,0-2,0-2.74v-7.28c0-.14,0-.56,0-1.25s0-1.53-.05-2.5,0-2,0-3.16,0-2.23-.05-3.27,0-2-.05-2.82,0-1.44,0-1.83h8.18q2,0,3.45,0l2.16,0,2.29,0,3.86-.11,4.66-.1C341.59,668.69,343.17,668.64,344.68,668.57Z"/><path class="cls-3" d="M391.14,704l1.57-3c.7-1.35,1.51-2.92,2.41-4.71s1.88-3.73,2.91-5.82,2.08-4.19,3.14-6.3l3.09-6.16c1-2,1.89-3.8,2.7-5.4s1.47-2.92,2-4a21.46,21.46,0,0,1,1-2h.1c.76,1.24,1.7,2.89,2.83,5s2.35,4.32,3.66,6.75,2.64,4.94,4,7.55,2.68,5.07,3.94,7.39,2.38,4.4,3.39,6.24,1.81,3.23,2.4,4.15l-4.38,3-.85-1.65-1.31-2.63c-.48-1-1-2-1.52-3.06s-1-2-1.51-2.95-.89-1.67-1.21-2.31a10.74,10.74,0,0,0-.65-1.17l-17.85.74c-.11.18-.29.58-.57,1.2l-1,2.23c-.37.87-.78,1.81-1.2,2.82s-.85,2-1.24,2.87-.75,1.72-1.05,2.44-.54,1.24-.67,1.52Zm26.24-14.46q-.15-.27-.72-1.41c-.38-.77-.82-1.65-1.34-2.66s-1.07-2.09-1.67-3.24S412.49,680,412,679s-1-1.87-1.34-2.58-.6-1.13-.67-1.27a11,11,0,0,0-.77,1.43c-.38.78-.82,1.71-1.31,2.79s-1,2.23-1.6,3.43-1.09,2.33-1.57,3.38-.9,1.94-1.26,2.68l-.64,1.33Z"/><path class="cls-3" d="M476.91,705.78c0-.39,0-1,.07-1.94s0-2,0-3.14,0-2.45.06-3.8,0-2.66.05-3.93,0-2.45,0-3.51v-9.68c0-.67,0-1.45,0-2.34s0-1.81-.05-2.79,0-1.89-.06-2.76,0-1.6,0-2.21v-1.11l2,0c.77,0,1.59.06,2.47.11s1.77.12,2.67.21,1.76.21,2.55.35a17,17,0,0,1,8.21,3.43,8.37,8.37,0,0,1,3,6.77,11.94,11.94,0,0,1-1.16,5.16,14.29,14.29,0,0,1-3.29,4.41,21.2,21.2,0,0,1-5.15,3.43,27.86,27.86,0,0,1-6.66,2.21v7.12c0,.85,0,1.66,0,2.42s0,1.29.08,1.57ZM481.64,691a23.29,23.29,0,0,0,4.48-1.46,14.75,14.75,0,0,0,3.57-2.24,9.46,9.46,0,0,0,2.37-3,9,9,0,0,0,.85-3.94,9.4,9.4,0,0,0-.31-1.86,6.14,6.14,0,0,0-1.44-2.55,10.06,10.06,0,0,0-3.37-2.29,15.93,15.93,0,0,0-6.15-1.06Z"/><path class="cls-3" d="M546,706.31c0-.39.06-1.19.08-2.39s0-2.61.07-4.2.06-3.28.08-5.05,0-3.42,0-4.95v-5.63c0-.78,0-1.68,0-2.71s0-2.1,0-3.22,0-2.24,0-3.37,0-2.16-.05-3.09,0-1.71,0-2.36,0-1.09,0-1.3h5.15q0,.21,0,1.11c0,.61,0,1.36-.05,2.26s0,1.9,0,3,0,2.17-.06,3.27,0,2.16,0,3.19,0,1.93,0,2.71v8.34c0,1.07,0,2.2,0,3.41s0,2.42,0,3.66,0,2.38.06,3.41,0,1.89,0,2.6a10.43,10.43,0,0,0,.08,1.33Zm24.13.43-1.44-1.6q-1.29-1.44-3.19-3.51t-4.17-4.49L557,692.52c-1.37-1.47-2.58-2.79-3.63-3.94l-2.13-2.36,1.54-1.57,3.24-3.3c1.27-1.29,2.64-2.69,4.09-4.2s2.83-2.92,4.09-4.25l3.3-3.43c.92-1,1.49-1.56,1.7-1.81l3,3.51c-.31.32-.84.84-1.6,1.57s-1.62,1.55-2.59,2.47l-3.12,2.95c-1.09,1.05-2.15,2.07-3.16,3.06l-2.78,2.71c-.84.82-1.48,1.45-1.93,1.91.28.32.82.93,1.65,1.84s1.79,1.93,2.9,3.08l3.58,3.7,3.6,3.69c1.14,1.15,2.13,2.17,3,3.06s1.45,1.49,1.8,1.8Z"/><rect class="cls-4" width="614" height="860"/><rect class="cls-4" y="0.11" width="613.28" height="859.89"/></g></g></svg>